<?xml version="1.0" encoding="UTF-8"?> <svg xmlns="http://www.w3.org/2000/svg" viewBox="0 0 52 52"><defs><style>.cls-1{fill:#5cb7e7;}</style></defs><title>icon-man-graphy</title><g id="Layer_2" data-name="Layer 2"><g id="Icons"><path class="cls-1" d="M11,12A6,6,0,1,0,5,6,6,6,0,0,0,11,12ZM11,2A4,4,0,1,1,7,6,4,4,0,0,1,11,2ZM31,18a5,5,0,0,0,5-5,1,1,0,0,0-1-1H16a1.05,1.05,0,0,0-.71.29L11,16.58,6.71,12.29a1,1,0,0,0-1-.24L3.08,13A4.51,4.51,0,0,0,0,17.23V31a5,5,0,0,0,4,4.9V51a1,1,0,0,0,1,1H17a1,1,0,0,0,1-1V20a2,2,0,0,1,2-2ZM16,20V50H12V33a1,1,0,0,0-2,0V50H6V21a1,1,0,0,0-2,0V33.83A3,3,0,0,1,2,31V17.23a2.53,2.53,0,0,1,1.72-2.39l2-.69,4.56,4.56a1,1,0,0,0,1.42,0L16.41,14H33.83A3,3,0,0,1,31,16H20A4,4,0,0,0,16,20Zm35.82,2.43-7-10a1,1,0,0,0-1.64,0l-7,10a1,1,0,0,0-.07,1A1,1,0,0,0,37,24h3V51a1,1,0,0,0,1,1h6a1,1,0,0,0,1-1V24h3a1,1,0,0,0,.89-.54A1,1,0,0,0,51.82,22.43ZM47,22a1,1,0,0,0-1,1V50H42V23a1,1,0,0,0-1-1H38.92L44,14.74,49.08,22ZM37,30H31a1,1,0,0,0-1,1V51a1,1,0,0,0,1,1h6a1,1,0,0,0,1-1V31a1,1,0,0,0-1-1ZM36,50H32V32h4ZM27,40H21a1,1,0,0,0-1,1V51a1,1,0,0,0,1,1h6a1,1,0,0,0,1-1V41a1,1,0,0,0-1-1ZM26,50H22V42h4Z"></path></g></g></svg> 