<?xml version="1.0" encoding="UTF-8"?> <svg xmlns="http://www.w3.org/2000/svg" viewBox="0 0 52 52"><defs><style>.cls-1{fill:#5cb7e7;}</style></defs><title>icon-man-piechart</title><g id="Layer_2" data-name="Layer 2"><g id="Icons"><path class="cls-1" d="M11,12A6,6,0,1,0,5,6,6,6,0,0,0,11,12ZM11,2A4,4,0,1,1,7,6,4,4,0,0,1,11,2ZM31,18a5,5,0,0,0,5-5,1,1,0,0,0-1-1H16a1.05,1.05,0,0,0-.71.29L11,16.59l-4.29-4.3a1,1,0,0,0-1-.24L3.08,13A4.51,4.51,0,0,0,0,17.23V31a5,5,0,0,0,4,4.9V51a1,1,0,0,0,.29.71A1,1,0,0,0,5,52H17a1,1,0,0,0,.71-.29A1,1,0,0,0,18,51V20a2,2,0,0,1,2-2ZM16,20V50H12V33a1,1,0,0,0-2,0V50H6V21a1,1,0,0,0-2,0V33.83A3,3,0,0,1,2,31V17.23a2.53,2.53,0,0,1,1.72-2.39l2-.69,4.56,4.56a1,1,0,0,0,1.42,0L16.41,14H33.83A3,3,0,0,1,31,16H20A4,4,0,0,0,16,20ZM47,37H35V25a1,1,0,0,0-1-1A14,14,0,1,0,48,38a1,1,0,0,0-1-1ZM22,38A12,12,0,0,1,33,26V37.59l-8.16,8.15A12,12,0,0,1,22,38ZM34,50a11.94,11.94,0,0,1-7.74-2.85L34.42,39H46A12,12,0,0,1,34,50Zm4-30a1,1,0,0,0-1,1V34a1,1,0,0,0,.29.71A1,1,0,0,0,38,35H51a1,1,0,0,0,.71-.29A1,1,0,0,0,52,34,14,14,0,0,0,38,20Zm1,13V22A12,12,0,0,1,50,33Z"></path></g></g></svg> 