<?xml version="1.0" encoding="UTF-8"?> <svg xmlns="http://www.w3.org/2000/svg" viewBox="0 0 52 52"><defs><style>.cls-1{fill:#5cb7e7;}</style></defs><title>icon-man-clock</title><g id="Layer_2" data-name="Layer 2"><g id="Icons"><path class="cls-1" d="M11,12A6,6,0,1,0,5,6,6,6,0,0,0,11,12ZM11,2A4,4,0,1,1,7,6,4,4,0,0,1,11,2ZM38.41,20.9a1,1,0,0,0,1.37-.37l1-1.71a1,1,0,1,0-1.73-1l-1,1.71A1,1,0,0,0,38.41,20.9ZM25.59,43.1a1,1,0,0,0-1.37.37l-1,1.71a1,1,0,0,0,.36,1.37A1,1,0,0,0,25,46.18l1-1.71A1,1,0,0,0,25.59,43.1ZM44,26.09a1,1,0,0,0,.5-.14l1.71-1a1,1,0,0,0,.37-1.36,1,1,0,0,0-1.37-.37l-1.71,1a1,1,0,0,0,.5,1.87ZM46.18,39l-1.71-1a1,1,0,1,0-1,1.73l1.71,1a1,1,0,1,0,1-1.74Zm-6.4,4.44a1,1,0,1,0-1.74,1l1,1.71a1,1,0,0,0,.87.5.93.93,0,0,0,.5-.14,1,1,0,0,0,.36-1.36ZM25,17.82a1,1,0,0,0-1.37-.37,1,1,0,0,0-.36,1.37l1,1.71a1,1,0,1,0,1.73-1ZM40,31H33.72a1.91,1.91,0,0,0-.72-.72V22a1,1,0,0,0-2,0v8.28A2,2,0,0,0,30,32a2,2,0,0,0,3.72,1H40a1,1,0,0,0,0-2ZM32,19a1,1,0,0,0,1-1V16a1,1,0,0,0-2,0v2A1,1,0,0,0,32,19Zm0,26a1,1,0,0,0-1,1v2a1,1,0,0,0,2,0V46A1,1,0,0,0,32,45ZM48,31H46a1,1,0,0,0,0,2h2a1,1,0,0,0,0-2ZM32,12a19.83,19.83,0,0,0-10.57,3.05,4.55,4.55,0,0,0-2.52-2.11l-2.58-.89a1,1,0,0,0-1,.24L11,16.58,6.71,12.29a1,1,0,0,0-1-.24L3.08,13A4.51,4.51,0,0,0,0,17.23V29a5,5,0,0,0,4,4.9V51a1,1,0,0,0,1,1H17a1,1,0,0,0,1-1V46.25A20,20,0,1,0,32,12ZM17,20a1,1,0,0,0-1,1V50H12V33a1,1,0,0,0-2,0V50H6V21a1,1,0,0,0-2,0V31.82A3,3,0,0,1,2,29V17.23a2.53,2.53,0,0,1,1.72-2.39l2-.69,4.56,4.56a1,1,0,0,0,1.42,0l4.55-4.56,2,.69A2.55,2.55,0,0,1,20,16.78v0a1.84,1.84,0,0,1,0,.41V29a3,3,0,0,1-2,2.82V21A1,1,0,0,0,17,20ZM32,50a17.91,17.91,0,0,1-14-6.73V40.84a.87.87,0,0,0,.32.06,1,1,0,0,0,.5-.13l1.71-1a1,1,0,0,0,.37-1.37,1,1,0,0,0-1.37-.36L18,38.93v-5A5,5,0,0,0,22,29V17.23c0-.05,0-.1,0-.15A17.74,17.74,0,0,1,32,14a18,18,0,0,1,0,36Z"></path></g></g></svg> 