<?xml version="1.0" encoding="UTF-8"?> <svg xmlns="http://www.w3.org/2000/svg" viewBox="0 0 52 52"><defs><style>.cls-1{fill:#5cb7e7;}</style></defs><title>icon-man-globe</title><g id="Layer_2" data-name="Layer 2"><g id="Icons"><path class="cls-1" d="M11,12a6,6,0,0,0,6-6h0a6,6,0,1,0-6,6ZM11,2a4,4,0,0,1,4,4h0a4,4,0,1,1-4-4ZM36,13a1,1,0,0,0-.29-.71A1,1,0,0,0,35,12H16a1.05,1.05,0,0,0-.71.29L11,16.58,6.71,12.29a1,1,0,0,0-1-.24l-2.59.89A4.51,4.51,0,0,0,0,17.23V31a5,5,0,0,0,4,4.9V51a1,1,0,0,0,1,1H17a1,1,0,0,0,.71-.29A1,1,0,0,0,18,51V20a2,2,0,0,1,2-2H31A5,5,0,0,0,36,13ZM16,20V50H12V33a1,1,0,0,0-2,0V50H6V21a1,1,0,0,0-2,0V33.83A3,3,0,0,1,2,31V17.23a2.52,2.52,0,0,1,1.72-2.39l2-.69,4.56,4.56a1,1,0,0,0,1.42,0L16.41,14H33.83A3,3,0,0,1,31,16H20A4,4,0,0,0,16,20Zm21,2A15,15,0,1,0,52,37,15,15,0,0,0,37,22Zm-4.34,2.76A12.07,12.07,0,0,0,31.16,27a18.88,18.88,0,0,0-1.46,4H25.48A13.05,13.05,0,0,1,32.66,24.76ZM24,37a12.89,12.89,0,0,1,.64-4H29.3a26.82,26.82,0,0,0,0,8H24.64A12.89,12.89,0,0,1,24,37Zm1.48,6h4.23a18.25,18.25,0,0,0,1.45,4,11.4,11.4,0,0,0,1.51,2.24A13,13,0,0,1,25.48,43ZM36,49.31a6.43,6.43,0,0,1-3.06-3.23A15.34,15.34,0,0,1,31.77,43H36ZM36,41H31.33a24.41,24.41,0,0,1,0-8H36Zm0-10H31.77a15.68,15.68,0,0,1,1.17-3.09A6.4,6.4,0,0,1,36,24.69Zm12.52,0H44.29a18.34,18.34,0,0,0-1.45-4,12.07,12.07,0,0,0-1.5-2.23A13.05,13.05,0,0,1,48.52,31ZM38,24.69a6.4,6.4,0,0,1,3.06,3.22A15.68,15.68,0,0,1,42.23,31H38ZM38,33h4.67a24.41,24.41,0,0,1,0,8H38Zm0,16.31V43h4.23a15.34,15.34,0,0,1-1.17,3.08A6.43,6.43,0,0,1,38,49.31Zm3.33-.07A11.4,11.4,0,0,0,42.84,47a18.25,18.25,0,0,0,1.45-4h4.23A13,13,0,0,1,41.33,49.24ZM44.7,41a26.82,26.82,0,0,0,0-8h4.66a12.82,12.82,0,0,1,0,8Z"></path></g></g></svg> 