<svg xmlns="http://www.w3.org/2000/svg" viewBox="0 0 144.08 48.45"><defs><style>.cls-1{fill:#58595b;}.cls-2{fill:#e35b3f;}.cls-3{fill:#5cb7e7;}</style></defs><title>Asset 8</title><g id="Layer_2" data-name="Layer 2"><g id="CTA_Bar" data-name="CTA Bar"><path class="cls-1" d="M11.24,42.46a5.89,5.89,0,0,1,5.85-5.83,5.56,5.56,0,0,1,4.65,2.44,5.94,5.94,0,0,0-.94.42,4.81,4.81,0,0,0-3.71-1.78,4.75,4.75,0,1,0,0,9.5A5.15,5.15,0,0,0,21,45.3a9,9,0,0,0,.69.78,5.85,5.85,0,0,1-10.43-3.62Z"/><path class="cls-1" d="M25.29,42.43a5.83,5.83,0,1,1,5.83,5.83A5.85,5.85,0,0,1,25.29,42.43Zm10.58,0a4.76,4.76,0,1,0-4.75,4.76A4.75,4.75,0,0,0,35.87,42.43Z"/><path class="cls-1" d="M42.12,48.21H41V36.58l8.3,8.74V36.63h1.1V48.26l-8.3-8.74Z"/><path class="cls-1" d="M55.51,46.71a2.78,2.78,0,0,1-.5-1.44L56.14,45a1.66,1.66,0,0,0,.29,1.13,2.8,2.8,0,0,0,1.92,1.15c3.07.47,4.75-2.81,1.78-4l-2.68-1a2.77,2.77,0,0,1-2-3.26,3.49,3.49,0,0,1,4.08-2.21,3.22,3.22,0,0,1,2.78,2.39l-1.08.24a2.12,2.12,0,0,0-1.89-1.55c-2.68-.5-4.1,2.36-1.5,3.39l2.68,1c3.84,1.49,2.5,6.12-1.76,6.12A4.14,4.14,0,0,1,55.51,46.71Z"/><path class="cls-1" d="M66.88,43.9V36.63H68V43.9a3.3,3.3,0,0,0,6.6,0V36.63h1.1V43.9a4.4,4.4,0,0,1-8.8,0Z"/><path class="cls-1" d="M81.35,36.63v10.5h6.51v1.08H80.27V36.63Z"/><path class="cls-1" d="M89.57,37.71V36.63H98.5v1.08H94.58v10.5h-1.1V37.71Z"/><path class="cls-1" d="M103.62,36.63V48.21h-1.08V36.63Z"/><path class="cls-1" d="M109.31,48.21h-1.1V36.58l8.3,8.74V36.63h1.1V48.26l-8.3-8.74Z"/><path class="cls-1" d="M127.78,36.63a5.55,5.55,0,0,1,4.64,2.44c-.28.13-.65.26-.94.42a4.8,4.8,0,0,0-3.7-1.78,4.75,4.75,0,1,0,0,9.5,4.78,4.78,0,0,0,4.7-4.2h-2.73v-1.1h3.86v.89a5.84,5.84,0,1,1-5.83-6.17Z"/><path class="cls-2" d="M6.34,1.75H0V25.37l6.34,0a11.93,11.93,0,0,0,12-11.84A11.92,11.92,0,0,0,6.34,1.75Zm8.9,11.81a9,9,0,0,1-8.9,9.11H3.09V4.48H6.34A9,9,0,0,1,15.24,13.56Z"/><polygon class="cls-2" points="20.32 25.4 36.35 25.4 36.35 22.67 23.41 22.67 23.41 14.94 35.12 14.94 35.12 12.21 23.41 12.21 23.41 4.48 36.35 4.48 36.35 1.75 20.32 1.75 20.32 25.4"/><path class="cls-2" d="M62.49,8.36a6.7,6.7,0,0,0-6.76-6.61H47.3V25.4h3.09V14.94h5.34A6.68,6.68,0,0,0,62.49,8.36Zm-3.09,0a3.77,3.77,0,0,1-3.67,3.85H50.39V4.51h5.34A3.77,3.77,0,0,1,59.4,8.36Z"/><path class="cls-2" d="M96.51,8.36a6.7,6.7,0,0,0-6.76-6.61h-8.4V25.4h3.08V14.94h2.7l8,10.46h3.74L90.81,14.86A6.65,6.65,0,0,0,96.51,8.36Zm-3.09,0a3.77,3.77,0,0,1-3.67,3.85H84.43V4.51h5.32A3.77,3.77,0,0,1,93.42,8.36Zm-3.67,6.13Z"/><path class="cls-2" d="M106.54,1.75H100.2V25.37l6.34,0a11.93,11.93,0,0,0,12-11.84A11.92,11.92,0,0,0,106.54,1.75Zm8.9,11.81a9,9,0,0,1-8.9,9.11h-3.25V4.48h3.25A9,9,0,0,1,115.44,13.56Z"/><path class="cls-2" d="M132,1.6a12,12,0,0,0-12.08,11.9,12.08,12.08,0,0,0,24.16,0A12,12,0,0,0,132,1.6Zm9,11.9a9,9,0,1,1-18,0,9,9,0,1,1,18,0Z"/><polygon class="cls-3" points="57.56 25.4 60.9 25.4 68.81 7.51 76.75 25.4 80.1 25.4 68.81 0 57.56 25.4"/></g></g></svg>