<svg xmlns="http://www.w3.org/2000/svg" viewBox="0 0 48 52"><defs><style>.cls-1{fill:#5cb7e7;}</style></defs><title>icon-head-question</title><g id="Layer_2" data-name="Layer 2"><g id="Icons"><path class="cls-1" d="M28,0A20,20,0,0,0,8,19.6L.9,26.76A3,3,0,0,0,0,28.91,3.08,3.08,0,0,0,3.06,32H6v9a5,5,0,0,0,5,5h7v5a1,1,0,0,0,2,0V45a1,1,0,0,0-1-1H11a3,3,0,0,1-3-3V31a1,1,0,0,0-1-1H3.06A1.07,1.07,0,0,1,2,28.91a1,1,0,0,1,.31-.74l7.4-7.45A1,1,0,0,0,10,20v0A18,18,0,1,1,40.31,33.1a1,1,0,0,0-.31.73V51a1,1,0,0,0,2,0V34.25A20,20,0,0,0,28,0Zm0,6A14,14,0,0,0,14,20a1,1,0,0,0,1,1h4a1,1,0,0,0,1-1,8,8,0,1,1,9.81,7.79C27.4,28.34,25,30.16,25,33v6a1,1,0,0,0,1,1h4a1,1,0,0,0,.71-.29A1,1,0,0,0,31,39V33.83s.06-.18.24-.22A14,14,0,0,0,28,6Zm2.78,25.66A2.26,2.26,0,0,0,29,33.83V38H27V33c0-1.53,1.41-2.82,3.26-3.26A10,10,0,1,0,18.05,19H16A12,12,0,1,1,30.78,31.66ZM30,42H26a1,1,0,0,0-1,1v4a1,1,0,0,0,1,1h4a1,1,0,0,0,1-1V43a1,1,0,0,0-1-1Zm-3,4V44h2v2Z"/></g></g></svg>