<?xml version="1.0" encoding="utf-8"?>
<!-- Generator: Adobe Illustrator 23.0.6, SVG Export Plug-In . SVG Version: 6.00 Build 0)  -->
<svg version="1.1" xmlns="http://www.w3.org/2000/svg" xmlns:xlink="http://www.w3.org/1999/xlink" x="0px" y="0px"
	 viewBox="0 0 41.65 32.11" style="enable-background:new 0 0 41.65 32.11;" xml:space="preserve">
<style type="text/css">
	.st0{fill:#FFFFFF;}
</style>
<g id="Layer_1">
</g>
<g id="Layer_17">
	<path class="st0" d="M8.53,1.43c2.62,0,4.73,0.93,6.33,2.78c1.6,1.86,2.4,4.35,2.4,7.48c0,4-1.17,7.75-3.49,11.25
		c-2.33,3.49-5.21,6.08-8.62,7.75l-1.09-1.86c1.46-1.16,2.75-2.58,3.88-4.26c1.13-1.67,2.02-3.71,2.67-6.11L8.31,17.8
		c-2.33-0.73-4.17-1.82-5.51-3.28c-1.35-1.46-2.02-3.24-2.02-5.35c0-2.33,0.76-4.2,2.29-5.62C4.6,2.14,6.42,1.43,8.53,1.43z
		 M31.46,1.43c2.62,0,4.73,0.93,6.33,2.78c1.6,1.86,2.4,4.35,2.4,7.48c0,4-1.17,7.75-3.49,11.25c-2.33,3.49-5.21,6.08-8.62,7.75
		l-1.09-1.86c1.46-1.16,2.75-2.58,3.88-4.26c1.13-1.67,2.02-3.71,2.67-6.11l-2.29-0.66c-2.33-0.73-4.17-1.82-5.51-3.28
		c-1.35-1.46-2.02-3.24-2.02-5.35c0-2.33,0.76-4.2,2.29-5.62C27.53,2.14,29.35,1.43,31.46,1.43z"/>
</g>
</svg>
