<svg xmlns="http://www.w3.org/2000/svg" viewBox="0 0 52 52"><defs><style>.cls-1{fill:#fff;}</style></defs><title>icon-bulb-arrow</title><g id="Layer_2" data-name="Layer 2"><g id="Icons"><path class="cls-1" d="M6,18a1,1,0,0,0-1-1H1a1,1,0,0,0,0,2H5A1,1,0,0,0,6,18ZM10.44,3.86a1,1,0,0,0,1.42,0,1,1,0,0,0,0-1.42L10.44,1A1,1,0,0,0,9,2.44ZM3.85,6.36l3.46,2a1,1,0,1,0,1-1.74l-3.46-2A1,1,0,0,0,3.48,5,1,1,0,0,0,3.85,6.36ZM8.68,28a1,1,0,0,0-1.37-.37l-3.46,2a1,1,0,0,0,.5,1.87.93.93,0,0,0,.5-.14l3.46-2A1,1,0,0,0,8.68,28Zm32.88,4.14a1,1,0,0,0-1.42,1.42L41.56,35A1,1,0,0,0,43,33.56Zm-31.12,0L9,33.56A1,1,0,0,0,9,35a1,1,0,0,0,.7.29,1,1,0,0,0,.71-.29l1.42-1.42a1,1,0,0,0,0-1.41A1,1,0,0,0,10.44,32.14Zm30.41-28a1,1,0,0,0,.71-.29L43,2.44A1,1,0,0,0,41.56,1L40.14,2.44a1,1,0,0,0,0,1.42A1,1,0,0,0,40.85,4.15ZM4,24.92,6,24.4a1,1,0,0,0-.51-1.93L3.52,23a1,1,0,0,0,.26,2A1.09,1.09,0,0,0,4,24.92ZM3.52,13l1.93.52.26,0a1,1,0,0,0,.26-2L4,11.08A1,1,0,0,0,3.52,13ZM48.15,29.63l-3.46-2a1,1,0,0,0-1,1.74l3.46,2a.93.93,0,0,0,.5.14,1,1,0,0,0,.5-1.87ZM43.32,8a1,1,0,0,0,1.37.37l3.46-2A1,1,0,0,0,48.51,5a1,1,0,0,0-1.36-.37l-3.46,2A1,1,0,0,0,43.32,8Zm8.57,13.55L50.12,18l1.77-3.55A1,1,0,0,0,51,13H45a1,1,0,0,0-.71.29l-.75.75A18,18,0,1,0,16.23,33.12,1.64,1.64,0,0,1,17,34.5V39a3,3,0,0,0,2,2.81V44h-.07A1,1,0,0,0,19,46v1h-.07A1,1,0,0,0,19,49h.14A4,4,0,0,0,23,52h6a4,4,0,0,0,4-4h.07A1,1,0,0,0,34,46.93,1,1,0,0,0,33,46V45h.07A1,1,0,0,0,34,43.93,1,1,0,0,0,33,43V41.82A3,3,0,0,0,35,39V34.5a1.64,1.64,0,0,1,.77-1.38A18,18,0,0,0,43.55,22l.74.74A1,1,0,0,0,45,23h6a1,1,0,0,0,.89-1.45ZM29,50H23a2,2,0,0,1-1.81-1.15l9.8-.71A2,2,0,0,1,29,50Zm2-3.86-10,.71v-1l10-.72Zm0-3-10,.71V42H31ZM26,20a2,2,0,0,0,1.72-1h2.14a4,4,0,1,1,0-2H27.72A2,2,0,0,0,26,16a2,2,0,0,0,0,4Zm0-8a6,6,0,1,0,5.91,7h4a10,10,0,1,1,0-2h-4A6,6,0,0,0,26,12Zm0-6A12,12,0,1,0,38,19h2.63l1.24,1.23a16,16,0,0,1-7.14,11.21A3.65,3.65,0,0,0,33,34.5V39a1,1,0,0,1-1,1H20a1,1,0,0,1-1-1V34.5a3.65,3.65,0,0,0-1.68-3.06,16,16,0,1,1,24.5-15.68L40.58,17H38A12,12,0,0,0,26,6ZM48.1,18.45,49.38,21h-4l-3-3,3-3h4L48.1,17.55A1,1,0,0,0,48.1,18.45Z"/></g></g></svg>